HIERARCHY
ROOT hip
{
  OFFSET 0.0 0.0 0.0
  CHANNELS 6 Xposition Yposition Zposition Zrotation Yrotation Xrotation
  JOINT abdomen
  {
    OFFSET 0.0 20.6881 -0.73152
    CHANNELS 3 Zrotation Xrotation Yrotation
    JOINT chest
    {
      OFFSET 0.0 11.7043 -0.48768
      CHANNELS 3 Zrotation Xrotation Yrotation
      JOINT neck
      {
        OFFSET 0.0 22.1894 -2.19456
        CHANNELS 3 Zrotation Xrotation Yrotation
        JOINT head
        {
          OFFSET -0.24384 7.07133 1.2192
          CHANNELS 3 Zrotation Xrotation Yrotation
          JOINT leftEye
          {
            OFFSET 4.14528 8.04674 8.04672
            CHANNELS 3 Zrotation Xrotation Yrotation
            End Site
            {
              OFFSET 1.0 0.0 0.0
            }
          }
          JOINT rightEye
          {
            OFFSET -3.6576 8.04674 8.04672
            CHANNELS 3 Zrotation Xrotation Yrotation
            End Site
            {
              OFFSET 1.0 0.0 0.0
            }
          }
        }
      }
      JOINT rCollar
      {
        OFFSET -2.68224 19.2634 -4.8768
        CHANNELS 3 Zrotation Xrotation Yrotation
        JOINT rShldr
        {
          OFFSET -8.77824 -1.95073 1.46304
          CHANNELS 3 Zrotation Xrotation Yrotation
          JOINT rForeArm
          {
            OFFSET -28.1742 -1.7115 0.48768
            CHANNELS 3 Zrotation Xrotation Yrotation
            JOINT rHand
            {
              OFFSET -22.5879 0.773209 7.07136
              CHANNELS 3 Zrotation Xrotation Yrotation
              JOINT rThumb1
              {
                OFFSET -1.2192 -0.487915 3.41376
                CHANNELS 3 Zrotation Xrotation Yrotation
                JOINT rThumb2
                {
                  OFFSET -3.37035 -0.52449 3.41376
                  CHANNELS 3 Zrotation Xrotation Yrotation
                  End Site
                  {
                    OFFSET -1.78271 -1.18214 1.43049
                  }
                }
              }
              JOINT rIndex1
              {
                OFFSET -7.75947 0.938293 5.60832
                CHANNELS 3 Zrotation Xrotation Yrotation
                JOINT rIndex2
                {
                  OFFSET -2.54057 -0.884171 1.56538
                  CHANNELS 3 Zrotation Xrotation Yrotation
                  End Site
                  {
                    OFFSET -1.62519 -0.234802 1.16502
                  }
                }
              }
              JOINT rMid1
              {
                OFFSET -8.24714 1.18213 3.41376
                CHANNELS 3 Zrotation Xrotation Yrotation
                JOINT rMid2
                {
                  OFFSET -3.10165 -0.590103 1.0647
                  CHANNELS 3 Zrotation Xrotation Yrotation
                  End Site
                  {
                    OFFSET -2.48547 -0.328903 0.83742
                  }
                }
              }
              JOINT rRing1
              {
                OFFSET -8.82822 0.546677 1.51678
                CHANNELS 3 Zrotation Xrotation Yrotation
                JOINT rRing2
                {
                  OFFSET -2.60934 -0.819778 -0.0198488
                  CHANNELS 3 Zrotation Xrotation Yrotation
                  End Site
                  {
                    OFFSET -2.33842 -0.294052 0.168128
                  }
                }
              }
              JOINT rPinky1
              {
                OFFSET -8.27202 -0.0477905 -0.4584
                CHANNELS 3 Zrotation Xrotation Yrotation
                JOINT rPinky2
                {
                  OFFSET -1.82734 -0.647385 -0.700984
                  CHANNELS 3 Zrotation Xrotation Yrotation
                  End Site
                  {
                    OFFSET -1.69225 -0.51767 -0.607171
                  }
                }
              }
            }
          }
        }
      }
      JOINT lCollar
      {
        OFFSET 2.68224 19.2634 -4.8768
        CHANNELS 3 Zrotation Xrotation Yrotation
        JOINT lShldr
        {
          OFFSET 8.77824 -1.95073 1.46304
          CHANNELS 3 Zrotation Xrotation Yrotation
          JOINT lForeArm
          {
            OFFSET 28.1742 -1.7115 0.48768
            CHANNELS 3 Zrotation Xrotation Yrotation
            JOINT lHand
            {
              OFFSET 22.5879 0.773209 7.07136
              CHANNELS 3 Zrotation Xrotation Yrotation
              JOINT lThumb1
              {
                OFFSET 1.2192 -0.487915 3.41376
                CHANNELS 3 Zrotation Xrotation Yrotation
                JOINT lThumb2
                {
                  OFFSET 3.37035 -0.52449 3.41376
                  CHANNELS 3 Zrotation Xrotation Yrotation
                  End Site
                  {
                    OFFSET 1.78271 -1.18214 1.43049
                  }
                }
              }
              JOINT lIndex1
              {
                OFFSET 7.75947 0.938293 5.60832
                CHANNELS 3 Zrotation Xrotation Yrotation
                JOINT lIndex2
                {
                  OFFSET 2.54057 -0.884171 1.56538
                  CHANNELS 3 Zrotation Xrotation Yrotation
                  End Site
                  {
                    OFFSET 1.62519 -0.234802 1.16502
                  }
                }
              }
              JOINT lMid1
              {
                OFFSET 8.24714 1.18213 3.41376
                CHANNELS 3 Zrotation Xrotation Yrotation
                JOINT lMid2
                {
                  OFFSET 3.10165 -0.590103 1.0647
                  CHANNELS 3 Zrotation Xrotation Yrotation
                  End Site
                  {
                    OFFSET 2.48547 -0.328903 0.83742
                  }
                }
              }
              JOINT lRing1
              {
                OFFSET 8.82822 0.546677 1.51678
                CHANNELS 3 Zrotation Xrotation Yrotation
                JOINT lRing2
                {
                  OFFSET 2.60934 -0.819778 -0.0198488
                  CHANNELS 3 Zrotation Xrotation Yrotation
                  End Site
                  {
                    OFFSET 2.33842 -0.294052 0.168128
                  }
                }
              }
              JOINT lPinky1
              {
                OFFSET 8.27202 -0.0477905 -0.4584
                CHANNELS 3 Zrotation Xrotation Yrotation
                JOINT lPinky2
                {
                  OFFSET 1.82734 -0.647385 -0.700984
                  CHANNELS 3 Zrotation Xrotation Yrotation
                  End Site
                  {
                    OFFSET 1.69225 -0.51767 -0.607171
                  }
                }
              }
            }
          }
        }
      }
    }
  }
  JOINT rButtock
  {
    OFFSET -8.77824 4.35084 1.2192
    CHANNELS 3 Zrotation Xrotation Yrotation
    JOINT rThigh
    {
      OFFSET 0.0 -1.70687 -2.19456
      CHANNELS 3 Zrotation Xrotation Yrotation
      JOINT rShin
      {
        OFFSET 0.0 -36.8199 0.73152
        CHANNELS 3 Zrotation Xrotation Yrotation
        JOINT rFoot
        {
          OFFSET 0.73152 -45.1104 -5.12064
          CHANNELS 3 Zrotation Xrotation Yrotation
          End Site
          {
            OFFSET -1.1221 -3.69964 12.103
          }
        }
      }
    }
  }
  JOINT lButtock
  {
    OFFSET 8.77824 4.35084 1.2192
    CHANNELS 3 Zrotation Xrotation Yrotation
    JOINT lThigh
    {
      OFFSET 0.0 -1.70687 -2.19456
      CHANNELS 3 Zrotation Xrotation Yrotation
      JOINT lShin
      {
        OFFSET 0.0 -36.8199 0.73152
        CHANNELS 3 Zrotation Xrotation Yrotation
        JOINT lFoot
        {
          OFFSET -0.73152 -45.1104 -5.12064
          CHANNELS 3 Zrotation Xrotation Yrotation
          End Site
          {
            OFFSET 1.1221 -3.69964 12.103
          }
        }
      }
    }
  }
}
MOTION
Frames: 7
Frame Time: 0.00833333
-122.162 83.3581 26.4488 -32.9673 85.7424 -10.3243 6.35542 0.876904 4.47253 -1.44301 -11.5837 1.17836 -0.17649 -1.6699 -1.13851 -3.28664 18.7014 0.178752 -0.0 0.0 0.0 -0.0 0.0 0.0 -1.69057e-14 -3.59567e-13 6.02954e-15 97.3269 29.2535 -54.7064 -11.4082 -5.05956 20.4552 0.00697438 -4.7364 -0.666295 1.48622e-09 7.9069e-10 -8.31218e-10 2.57291e-09 1.35956e-09 -1.42194e-09 1.48623e-09 7.90689e-10 -8.31229e-10 7.73091 5.47488 0.417314 1.48622e-09 7.90687e-10 -8.31212e-10 2.90554 0.965183 0.102902 1.48622e-09 7.90685e-10 -8.31216e-10 10.2786 0.731801 0.0259123 1.48622e-09 7.90688e-10 -8.31204e-10 2.22167 -0.733487 -0.20892 -1.69696e-14 -3.59562e-13 5.95888e-15 -72.34 12.9988 46.8926 10.015 -4.13093 -17.8839 1.80546 35.8371 -5.77974 -1.63108e-09 7.03981e-10 -7.59655e-10 -2.82501e-09 1.22681e-09 -1.27631e-09 -1.63109e-09 7.03997e-10 -7.59635e-10 -7.73091 5.47488 -0.417314 -1.63108e-09 7.03989e-10 -7.59658e-10 -2.90554 0.965183 -0.102902 -1.6311e-09 7.04e-10 -7.59653e-10 -10.2786 0.731801 -0.0259123 -1.63108e-09 7.03991e-10 -7.59673e-10 -2.22167 -0.733487 0.20892 -2.03217e-16 0.0 -3.88251e-19 16.8698 -20.1708 24.4518 -0.00120738 3.72459 -0.190136 -2.31982 -12.248 -26.4527 2.03217e-16 0.0 3.88251e-19 -6.91587 -11.9367 -37.1856 0.0424714 -3.78059 0.40806 5.18914 -36.3796 10.3392
-121.971 83.3832 26.519 -33.4921 85.7991 -10.4328 6.34714 1.14057 4.37829 -1.45709 -11.1636 1.14751 -0.156351 -1.38478 -1.16472 -3.23661 17.4518 -0.0282614 -0.0 0.0 0.0 -0.0 0.0 0.0 -1.9869e-14 -1.10338e-12 3.69615e-14 93.8924 25.0282 -56.5006 -9.96894 -4.14784 17.7028 0.0524 -0.54926 -0.0769866 -1.41008e-10 -1.98985e-10 -1.06738e-09 -2.43815e-10 -3.60413e-10 -1.82277e-09 -1.41006e-10 -1.98989e-10 -1.06739e-09 7.73091 5.47488 0.417314 -1.41008e-10 -1.98989e-10 -1.06737e-09 2.90554 0.965183 0.102902 -1.41004e-10 -1.98987e-10 -1.06738e-09 10.2786 0.731801 0.0259123 -1.41011e-10 -1.98985e-10 -1.06736e-09 2.22167 -0.733487 -0.20892 -1.9939e-14 -1.10337e-12 3.69118e-14 -65.9591 8.12291 49.9365 8.93876 -3.51472 -15.8612 2.79689 42.5703 -7.37336 -1.39058e-09 1.73591e-09 5.03248e-10 -2.35985e-09 2.91706e-09 8.91181e-10 -1.39058e-09 1.73592e-09 5.03262e-10 -7.73091 5.47488 -0.417314 -1.39057e-09 1.73591e-09 5.03246e-10 -2.90554 0.965183 -0.102902 -1.39059e-09 1.73592e-09 5.03248e-10 -10.2786 0.731801 -0.0259123 -1.39057e-09 1.73592e-09 5.03234e-10 -2.22167 -0.733487 0.20892 -2.03217e-16 0.0 -3.88251e-19 16.8653 -20.5254 24.1085 -0.00168509 3.73184 -0.190479 -2.45239 -12.5227 -25.9315 2.03217e-16 0.0 3.88251e-19 -6.83703 -12.5512 -36.0488 0.0418113 -3.4855 0.397138 4.5195 -35.3306 9.49029
-121.802 83.4135 26.6048 -34.2497 85.8001 -10.7306 6.33459 1.40897 4.29909 -1.45314 -10.7426 1.12312 -0.127426 -1.10016 -1.18127 -3.17289 16.1558 -0.222552 -0.0 0.0 0.0 -0.0 0.0 0.0 -1.51655e-14 -1.83593e-12 6.86203e-14 90.1791 21.383 -58.1837 -8.46709 -3.27823 14.9163 0.019878 3.56398 0.500924 -1.88223e-09 -1.17782e-09 -1.23932e-09 -3.25869e-09 -2.06082e-09 -2.11451e-09 -1.88223e-09 -1.17783e-09 -1.23933e-09 7.73091 5.47488 0.417314 -1.88223e-09 -1.17783e-09 -1.23931e-09 2.90554 0.965183 0.102902 -1.88222e-09 -1.17782e-09 -1.23932e-09 10.2786 0.731801 0.0259123 -1.88223e-09 -1.17782e-09 -1.23931e-09 2.22167 -0.733487 -0.20892 -1.52434e-14 -1.83593e-12 6.85792e-14 -58.6715 3.56728 53.0576 7.9997 -3.02156 -14.0966 4.39214 49.7422 -9.54517 -1.0316e-09 2.73369e-09 1.8024e-09 -1.68766e-09 4.54301e-09 3.11889e-09 -1.03161e-09 2.7337e-09 1.80241e-09 -7.73091 5.47488 -0.417314 -1.0316e-09 2.7337e-09 1.8024e-09 -2.90554 0.965183 -0.102902 -1.03161e-09 2.7337e-09 1.8024e-09 -10.2786 0.731801 -0.0259123 -1.0316e-09 2.7337e-09 1.80239e-09 -2.22167 -0.733487 0.20892 -2.03217e-16 0.0 -3.88251e-19 16.8797 -20.8959 23.796 -0.00213611 3.72941 -0.189038 -2.59491 -12.7761 -25.4101 2.03217e-16 0.0 3.88251e-19 -6.71026 -13.1959 -34.7971 0.0413185 -3.19965 0.387799 3.84898 -34.2314 8.61594
-121.652 83.4435 26.6999 -35.2061 85.748 -11.1826 6.32063 1.7075 4.24571 -1.43927 -10.3641 1.10697 -0.0829056 -0.906509 -1.17585 -3.09462 14.9311 -0.373126 -0.0 0.0 0.0 -0.0 0.0 0.0 -1.22818e-14 -2.53984e-12 9.45718e-14 87.1544 18.8249 -59.7908 -6.96912 -2.49341 12.2278 -0.0544444 6.64381 0.937976 -2.83612e-09 -1.61481e-09 -1.42809e-09 -4.9115e-09 -2.82014e-09 -2.43857e-09 -2.83612e-09 -1.61482e-09 -1.42809e-09 7.73091 5.47488 0.417314 -2.83612e-09 -1.61482e-09 -1.42807e-09 2.90554 0.965183 0.102902 -2.83611e-09 -1.61481e-09 -1.42808e-09 10.2786 0.731801 0.0259123 -2.83612e-09 -1.61481e-09 -1.42807e-09 2.22167 -0.733487 -0.20892 -1.23683e-14 -2.53984e-12 9.45221e-14 -51.0481 -0.369667 56.1406 7.22646 -2.61888 -12.6934 6.69817 56.7348 -12.3707 -8.26594e-10 3.47932e-09 2.63926e-09 -1.2959e-09 5.75865e-09 4.55401e-09 -8.26598e-10 3.47932e-09 2.63926e-09 -7.73091 5.47488 -0.417314 -8.26594e-10 3.47932e-09 2.63926e-09 -2.90554 0.965183 -0.102902 -8.26604e-10 3.47932e-09 2.63926e-09 -10.2786 0.731801 -0.0259123 -8.26591e-10 3.47932e-09 2.63925e-09 -2.22167 -0.733487 0.20892 -2.03217e-16 0.0 -3.88251e-19 16.9212 -21.299 23.5306 -0.00221791 3.72697 -0.182261 -2.70782 -12.9071 -24.9328 2.03217e-16 0.0 3.88251e-19 -6.55406 -13.8252 -33.783 0.0409243 -2.92276 0.378622 3.29463 -33.4292 7.82985
-121.517 83.4718 26.7955 -36.3629 85.6523 -11.8025 6.31474 2.02744 4.22369 -1.41218 -9.99423 1.10117 -0.0158913 -0.827637 -1.13869 -2.98332 13.7586 -0.469033 -0.0 0.0 0.0 -0.0 0.0 0.0 -1.23989e-14 -3.25701e-12 1.13578e-13 85.0938 17.4569 -61.1887 -5.47375 -1.81677 9.57114 -0.108756 8.47107 1.20011 -2.57368e-09 -1.16398e-09 -1.62069e-09 -4.46044e-09 -2.03795e-09 -2.7743e-09 -2.57368e-09 -1.16399e-09 -1.62069e-09 7.73091 5.47488 0.417314 -2.57368e-09 -1.16399e-09 -1.62067e-09 2.90554 0.965183 0.102902 -2.57367e-09 -1.16398e-09 -1.62068e-09 10.2786 0.731801 0.0259123 -2.57368e-09 -1.16398e-09 -1.62067e-09 2.22167 -0.733487 -0.20892 -1.24935e-14 -3.257e-12 1.13492e-13 -42.7412 -3.93541 59.1961 6.67076 -2.33104 -11.7187 10.3278 63.9294 -16.542 -7.9052e-10 3.83947e-09 2.78378e-09 -1.22024e-09 6.33689e-09 4.79776e-09 -7.90523e-10 3.83947e-09 2.78379e-09 -7.73091 5.47488 -0.417314 -7.9052e-10 3.83947e-09 2.78379e-09 -2.90554 0.965183 -0.102902 -7.90529e-10 3.83947e-09 2.78379e-09 -10.2786 0.731801 -0.0259123 -7.90517e-10 3.83947e-09 2.78379e-09 -2.22167 -0.733487 0.20892 -2.03217e-16 0.0 -3.88251e-19 16.9867 -21.6388 23.3217 -0.00247999 3.58025 -0.171792 -2.78701 -12.8814 -24.4874 2.03217e-16 0.0 3.88251e-19 -6.31763 -14.3296 -33.2305 0.0411561 -2.78993 0.372532 2.93422 -33.1581 7.23755
-121.397 83.4956 26.8845 -37.491 85.5299 -12.3853 6.31184 2.36035 4.22645 -1.36967 -9.62495 1.10415 0.068169 -0.815399 -1.07849 -2.84125 12.5923 -0.529108 -0.0 0.0 0.0 -0.0 0.0 0.0 -1.09068e-14 -3.98118e-12 1.28912e-13 83.5921 16.8748 -62.2791 -3.97687 -1.23671 6.90457 -0.133054 9.54542 1.35517 -1.63848e-09 -1.76666e-10 -1.78543e-09 -2.8462e-09 -3.23968e-10 -3.06575e-09 -1.63848e-09 -1.76669e-10 -1.78543e-09 7.73091 5.47488 0.417314 -1.63848e-09 -1.76667e-10 -1.78542e-09 2.90554 0.965183 0.102902 -1.63847e-09 -1.76661e-10 -1.78543e-09 10.2786 0.731801 0.0259123 -1.63848e-09 -1.76661e-10 -1.78541e-09 2.22167 -0.733487 -0.20892 -1.10099e-14 -3.98118e-12 1.28766e-13 -33.6728 -7.14433 62.3046 6.32891 -2.17398 -11.1019 17.3409 71.3028 -24.1365 -7.97309e-10 3.95548e-09 2.53424e-09 -1.23215e-09 6.50721e-09 4.36208e-09 -7.97311e-10 3.95548e-09 2.53425e-09 -7.73091 5.47488 -0.417314 -7.97308e-10 3.95548e-09 2.53425e-09 -2.90554 0.965183 -0.102902 -7.97318e-10 3.95548e-09 2.53424e-09 -10.2786 0.731801 -0.0259123 -7.97306e-10 3.95548e-09 2.53425e-09 -2.22167 -0.733487 0.20892 -2.03217e-16 0.0 -3.88251e-19 17.0756 -21.9396 23.1593 -0.00280004 3.33304 -0.158669 -2.85572 -12.7539 -24.0592 2.03217e-16 0.0 3.88251e-19 -6.02107 -14.7622 -32.9096 0.0417853 -2.75626 0.369171 2.66563 -33.1901 6.73794
-121.295 83.5074 26.9631 -38.4132 85.393 -12.7678 6.29303 2.73211 4.24662 -1.32156 -9.33849 1.11218 0.157559 -0.852307 -1.01069 -2.69626 11.5101 -0.567533 -0.0 0.0 0.0 -0.0 0.0 0.0 -8.60582e-15 -4.6228e-12 1.40903e-13 82.5878 16.7879 -63.086 -2.55554 -0.746241 4.39739 -0.132958 9.98663 1.41865 -5.88131e-10 8.32216e-10 -1.97531e-09 -1.03233e-09 1.42817e-09 -3.40132e-09 -5.88127e-10 8.32218e-10 -1.97531e-09 7.73091 5.47488 0.417314 -5.88133e-10 8.32218e-10 -1.9753e-09 2.90554 0.965183 0.102902 -5.88126e-10 8.32222e-10 -1.97531e-09 10.2786 0.731801 0.0259123 -5.88134e-10 8.32222e-10 -1.97529e-09 2.22167 -0.733487 -0.20892 -8.72006e-15 -4.6228e-12 1.40696e-13 -24.9943 -9.63578 65.2233 6.13677 -2.09875 -10.7401 31.4381 77.4939 -38.7637 -9.07838e-10 4.02131e-09 2.1845e-09 -1.42276e-09 6.60844e-09 3.76029e-09 -9.07839e-10 4.02131e-09 2.18451e-09 -7.73091 5.47488 -0.417314 -9.07837e-10 4.02131e-09 2.18451e-09 -2.90554 0.965183 -0.102902 -9.07847e-10 4.02131e-09 2.18451e-09 -10.2786 0.731801 -0.0259123 -9.07835e-10 4.02131e-09 2.18452e-09 -2.22167 -0.733487 0.20892 -2.03217e-16 0.0 -3.88251e-19 17.1973 -22.3988 23.0318 -0.00197344 3.27712 -0.138418 -2.91703 -12.5564 -23.6883 2.03217e-16 0.0 3.88251e-19 -5.78861 -15.3255 -32.494 0.0417403 -2.55145 0.362219 2.32703 -33.1797 6.12806
